<?xml version="1.0" encoding="UTF-8" standalone="no"?>
<!DOCTYPE svg PUBLIC "-//W3C//DTD SVG 1.1//EN"
 "http://www.w3.org/Graphics/SVG/1.1/DTD/svg11.dtd">
<!-- Generated by graphviz version 2.38.0 (20140413.2041)
 -->
<!-- Title: kripke_graph_example Pages: 1 -->
<svg width="182pt" height="145pt"
 viewBox="0.00 0.00 182.44 144.54" xmlns="http://www.w3.org/2000/svg" xmlns:xlink="http://www.w3.org/1999/xlink">
<g id="graph0" class="graph" transform="scale(1 1) rotate(0) translate(4 140.544)">
<title>kripke_graph_example</title>
<polygon fill="white" stroke="none" points="-4,4 -4,-140.544 178.444,-140.544 178.444,4 -4,4"/>
<!-- A -->
<g id="node1" class="node"><title>A</title>
<ellipse fill="#eeeeee" stroke="#333333" cx="31.944" cy="-18" rx="18" ry="18"/>
<text text-anchor="middle" x="31.944" y="-15.672" font-family="Optima" font-size="12.00">t</text>
<text text-anchor="middle" x="6.972" y="-40.9441" font-family="Optima" font-size="12.00">¬p</text>
</g>
<!-- A&#45;&gt;A -->
<g id="edge1" class="edge"><title>A&#45;&gt;A</title>
<path fill="none" stroke="#31cef0" d="M48.6081,-25.3828C58.569,-27.0234 67.944,-24.5625 67.944,-18 67.944,-13.7959 64.0965,-11.2751 58.7122,-10.4375"/>
<polygon fill="#31cef0" stroke="#31cef0" points="58.5442,-6.93988 48.6081,-10.6172 58.6687,-13.9388 58.5442,-6.93988"/>
<text text-anchor="middle" x="76.694" y="-13.8" font-family="Times,serif" font-size="14.00">1,2</text>
</g>
<!-- B -->
<g id="node2" class="node"><title>B</title>
<ellipse fill="#eeeeee" stroke="#333333" cx="75.944" cy="-104" rx="18" ry="18"/>
<text text-anchor="middle" x="75.944" y="-101.672" font-family="Optima" font-size="12.00">s</text>
<text text-anchor="middle" x="54.608" y="-126.944" font-family="Optima" font-size="12.00">p</text>
</g>
<!-- B&#45;&gt;A -->
<g id="edge2" class="edge"><title>B&#45;&gt;A</title>
<path fill="none" stroke="#31cef0" d="M63.0287,-78.3436C57.2529,-67.317 50.4637,-54.3557 44.706,-43.3638"/>
<polygon fill="#31cef0" stroke="#31cef0" points="60.1332,-80.3588 67.8737,-87.5931 66.334,-77.1107 60.1332,-80.3588"/>
<polygon fill="#31cef0" stroke="#31cef0" points="47.7037,-41.5435 39.9631,-34.3092 41.5028,-44.7916 47.7037,-41.5435"/>
<text text-anchor="middle" x="60.444" y="-56.8" font-family="Times,serif" font-size="14.00">1</text>
</g>
<!-- B&#45;&gt;B -->
<g id="edge3" class="edge"><title>B&#45;&gt;B</title>
<path fill="none" stroke="#31cef0" d="M92.6081,-111.383C102.569,-113.023 111.944,-110.562 111.944,-104 111.944,-99.7959 108.096,-97.2751 102.712,-96.4375"/>
<polygon fill="#31cef0" stroke="#31cef0" points="102.544,-92.9399 92.6081,-96.6172 102.669,-99.9388 102.544,-92.9399"/>
<text text-anchor="middle" x="120.694" y="-99.8" font-family="Times,serif" font-size="14.00">1,2</text>
</g>
<!-- C -->
<g id="node3" class="node"><title>C</title>
<ellipse fill="#eeeeee" stroke="#333333" cx="120.944" cy="-18" rx="18" ry="18"/>
<text text-anchor="middle" x="120.944" y="-15.672" font-family="Optima" font-size="12.00">u</text>
<text text-anchor="middle" x="99.608" y="-40.9441" font-family="Optima" font-size="12.00">p</text>
</g>
<!-- B&#45;&gt;C -->
<g id="edge4" class="edge"><title>B&#45;&gt;C</title>
<path fill="none" stroke="#31cef0" d="M88.933,-78.7539C94.8705,-67.6705 101.891,-54.5655 107.842,-43.4567"/>
<polygon fill="#31cef0" stroke="#31cef0" points="85.8348,-77.1255 84.1977,-87.5931 92.0051,-80.4311 85.8348,-77.1255"/>
<polygon fill="#31cef0" stroke="#31cef0" points="111.106,-44.7768 112.743,-34.3092 104.935,-41.4712 111.106,-44.7768"/>
<text text-anchor="middle" x="104.444" y="-56.8" font-family="Times,serif" font-size="14.00">2</text>
</g>
<!-- C&#45;&gt;C -->
<g id="edge5" class="edge"><title>C&#45;&gt;C</title>
<path fill="none" stroke="#31cef0" d="M137.608,-25.3828C147.569,-27.0234 156.944,-24.5625 156.944,-18 156.944,-13.7959 153.096,-11.2751 147.712,-10.4375"/>
<polygon fill="#31cef0" stroke="#31cef0" points="147.544,-6.93988 137.608,-10.6172 147.669,-13.9388 147.544,-6.93988"/>
<text text-anchor="middle" x="165.694" y="-13.8" font-family="Times,serif" font-size="14.00">1,2</text>
</g>
</g>
</svg>
